{
  "accessors": [
    {
      "bufferView": 2,
      "componentType": 5126,
      "count": 65532,
      "max": [
        0.04196599870920181,
        -0.0010809999657794833,
        0.14740599691867828
      ],
      "min": [
        -0.04663600027561188,
        -0.05922500044107437,
        -0.1161080002784729
      ],
      "type": "VEC3"
    },
    {
      "bufferView": 2,
      "byteOffset": 786384,
      "componentType": 5126,
      "count": 65532,
      "max": [
        0.9978048205375671,
        0.9999988079071045,
        0.9077402353286743
      ],
      "min": [
        -0.9999877214431763,
        -0.9999986886978149,
        -0.9998788833618164
      ],
      "type": "VEC3"
    },
    {
      "bufferView": 3,
      "componentType": 5126,
      "count": 65532,
      "max": [
        1.0,
        0.9999813437461853,
        0.9393347501754761,
        1.0
      ],
      "min": [
        -1.0,
        -0.9817925691604614,
        -1.0,
        -1.0
      ],
      "type": "VEC4"
    },
    {
      "bufferView": 1,
      "componentType": 5126,
      "count": 65532,
      "max": [
        0.6983489990234375,
        0.9900000095367432
      ],
      "min": [
        0.009999999776482582,
        0.2623629868030548
      ],
      "type": "VEC2"
    },
    {
      "bufferView": 0,
      "componentType": 5125,
      "count": 374727,
      "type": "SCALAR"
    },
    {
      "bufferView": 2,
      "byteOffset": 1572768,
      "componentType": 5126,
      "count": 48952,
      "max": [
        0.042125001549720764,
        -0.0011230000527575612,
        0.1476150006055832
      ],
      "min": [
        -0.048277001827955246,
        -0.05941399931907654,
        -0.11586599797010422
      ],
      "type": "VEC3"
    },
    {
      "bufferView": 2,
      "byteOffset": 2160192,
      "componentType": 5126,
      "count": 48952,
      "max": [
        0.9999995827674866,
        0.9999884366989136,
        0.9978779554367065
      ],
      "min": [
        -0.99992436170578,
        -0.9999998807907104,
        -0.9951292872428894
      ],
      "type": "VEC3"
    },
    {
      "bufferView": 3,
      "byteOffset": 1048512,
      "componentType": 5126,
      "count": 48952,
      "max": [
        1.0,
        0.9996905326843262,
        1.0,
        1.0
      ],
      "min": [
        -1.0,
        -0.9999996423721313,
        -1.0,
        -1.0
      ],
      "type": "VEC4"
    },
    {
      "bufferView": 1,
      "byteOffset": 524256,
      "componentType": 5126,
      "count": 48952,
      "max": [
        0.8031010031700134,
        0.9900000095367432
      ],
      "min": [
        0.009999999776482582,
        0.009999999776482582
      ],
      "type": "VEC2"
    },
    {
      "bufferView": 0,
      "byteOffset": 1498908,
      "componentType": 5125,
      "count": 234117,
      "type": "SCALAR"
    }
  ],
  "asset": {
    "extras": {
      "author": "grafi (https://sketchfab.com/zdenkoroman)",
      "license": "CC-BY-4.0 (http://creativecommons.org/licenses/by/4.0/)",
      "source": "https://sketchfab.com/3d-models/insoles-shoe-leather-3d-scan-87693a81c4f9430486be2c24813e98d0",
      "title": "Insoles Shoe Leather 3D Scan"
    },
    "generator": "Sketchfab-12.68.0",
    "version": "2.0"
  },
  "bufferViews": [
    {
      "buffer": 0,
      "byteLength": 2435376,
      "name": "floatBufferViews",
      "target": 34963
    },
    {
      "buffer": 0,
      "byteLength": 915872,
      "byteOffset": 2435376,
      "byteStride": 8,
      "name": "floatBufferViews",
      "target": 34962
    },
    {
      "buffer": 0,
      "byteLength": 2747616,
      "byteOffset": 3351248,
      "byteStride": 12,
      "name": "floatBufferViews",
      "target": 34962
    },
    {
      "buffer": 0,
      "byteLength": 1831744,
      "byteOffset": 6098864,
      "byteStride": 16,
      "name": "floatBufferViews",
      "target": 34962
    }
  ],
  "buffers": [
    {
      "byteLength": 7930608,
      "uri": "scene.bin"
    }
  ],
  "images": [
    {
      "uri": "textures/vlozka_low-retopo_baseColor.jpeg"
    },
    {
      "uri": "textures/vlozka_low-retopo_metallicRoughness.png"
    },
    {
      "uri": "textures/vlozka_low-retopo_normal.png"
    }
  ],
  "materials": [
    {
      "doubleSided": true,
      "name": "vlozka_low-retopo",
      "normalTexture": {
        "index": 2
      },
      "pbrMetallicRoughness": {
        "baseColorTexture": {
          "index": 0
        },
        "metallicFactor": 0.07086768657933237,
        "metallicRoughnessTexture": {
          "index": 1
        },
        "roughnessFactor": 0.23416683177111464
      }
    }
  ],
  "meshes": [
    {
      "name": "Object_0",
      "primitives": [
        {
          "attributes": {
            "NORMAL": 1,
            "POSITION": 0,
            "TANGENT": 2,
            "TEXCOORD_0": 3
          },
          "indices": 4,
          "material": 0,
          "mode": 4
        }
      ]
    },
    {
      "name": "Object_1",
      "primitives": [
        {
          "attributes": {
            "NORMAL": 6,
            "POSITION": 5,
            "TANGENT": 7,
            "TEXCOORD_0": 8
          },
          "indices": 9,
          "material": 0,
          "mode": 4
        }
      ]
    }
  ],
  "nodes": [
    {
      "children": [
        1
      ],
      "matrix": [
        -0.9997941851615906,
        0.020137503743171692,
        -0.002454488771036263,
        0.0,
        -0.02028653584420681,
        -0.9924493432044983,
        0.12096612900495507,
        0.0,
        -5.204170427930421e-17,
        0.12099102139472939,
        0.9926536083221436,
        0.0,
        -0.006765124388039112,
        -0.016109675168991092,
        0.01826107874512672,
        1.0
      ],
      "name": "Sketchfab_model"
    },
    {
      "children": [
        2,
        3
      ],
      "name": "insoles_low.obj.cleaner.materialmerger.gles"
    },
    {
      "mesh": 0,
      "name": "Object_2"
    },
    {
      "mesh": 1,
      "name": "Object_3"
    }
  ],
  "samplers": [
    {
      "magFilter": 9729,
      "minFilter": 9987,
      "wrapS": 10497,
      "wrapT": 10497
    }
  ],
  "scene": 0,
  "scenes": [
    {
      "name": "Sketchfab_Scene",
      "nodes": [
        0
      ]
    }
  ],
  "textures": [
    {
      "sampler": 0,
      "source": 0
    },
    {
      "sampler": 0,
      "source": 1
    },
    {
      "sampler": 0,
      "source": 2
    }
  ]
}
